<svg width="18" height="18" viewBox="0 0 18 18" fill="none" xmlns="http://www.w3.org/2000/svg">
<path d="M2.99976 8.79431C2.99976 8.50954 3.21137 8.27419 3.48593 8.23695L3.56226 8.23181L14.8123 8.23181C15.1229 8.23181 15.3748 8.48365 15.3748 8.79431C15.3748 9.07908 15.1631 9.31443 14.8886 9.35168L14.8123 9.35681L3.56226 9.35681C3.2516 9.35681 2.99976 9.10497 2.99976 8.79431Z" fill="#333333"/>
<path d="M9.87826 4.6746C9.65811 4.4554 9.65735 4.09925 9.87654 3.8791C10.0758 3.67898 10.3883 3.66015 10.6088 3.82306L10.672 3.87739L15.2095 8.39539C15.4103 8.59526 15.4285 8.90884 15.2643 9.1294L15.2096 9.19256L10.6721 13.7113C10.4519 13.9305 10.0958 13.9298 9.87658 13.7097C9.67729 13.5096 9.65978 13.197 9.82363 12.9771L9.87822 12.9142L14.0152 8.79377L9.87826 4.6746Z" fill="#333333"/>
</svg>
