<svg width="892" height="1084" viewBox="0 0 892 1084" fill="none" xmlns="http://www.w3.org/2000/svg">
<mask id="mask0_2870_2367" style="mask-type:luminance" maskUnits="userSpaceOnUse" x="0" y="0" width="892" height="1084">
<path d="M0 0H891.202V1084H0V0Z" fill="white"/>
</mask>
<g mask="url(#mask0_2870_2367)">
<mask id="mask1_2870_2367" style="mask-type:luminance" maskUnits="userSpaceOnUse" x="0" y="0" width="892" height="1084">
<path d="M445.601 0L891.202 259.262V824.562L445.601 1083.82L0 824.562V259.262L445.601 0Z" fill="white"/>
</mask>
<g mask="url(#mask1_2870_2367)">
<path d="M0 0H891.202V1082.69H0V0Z" fill="#FCFCFC"/>
</g>
</g>
<path d="M526.617 447.726C526.617 431.237 530.793 416.328 539.184 403C547.614 389.692 558.698 379.037 572.436 371.075C586.212 363.114 601.238 359.133 617.474 359.133V680.723C617.474 697.232 613.337 712.218 605.063 725.683C596.789 739.167 585.744 749.88 571.967 757.842C558.229 765.804 543.106 769.784 526.617 769.784V738.094L361.451 516.884V681.581C361.451 697.817 357.47 712.609 349.508 725.917C341.546 739.245 330.892 749.88 317.583 757.842C304.255 765.804 289.327 769.784 272.779 769.784V447.726C272.779 431.237 276.838 416.328 284.956 403C293.074 389.692 303.787 379.037 317.115 371.075C330.424 363.114 345.215 359.133 361.451 359.133L526.617 597.281V447.726Z" fill="#10B981"/>
</svg>
